<?xml version="1.0" encoding="UTF-8" standalone="no"?>
<svg
   xmlns:dc="http://purl.org/dc/elements/1.1/"
   xmlns:cc="http://creativecommons.org/ns#"
   xmlns:rdf="http://www.w3.org/1999/02/22-rdf-syntax-ns#"
   xmlns:svg="http://www.w3.org/2000/svg"
   xmlns="http://www.w3.org/2000/svg"
   xmlns:sodipodi="http://sodipodi.sourceforge.net/DTD/sodipodi-0.dtd"
   xmlns:inkscape="http://www.inkscape.org/namespaces/inkscape"
   class="marks"
   width="502"
   height="501.99982"
   viewBox="0 0 502 501.99982"
   version="1.1"
   id="svg66"
   sodipodi:docname="vega-circle-packing.svg"
   inkscape:version="0.92.3 (2405546, 2018-03-11)">
  <title
     id="title30">LCN - Vega Circles Packaging</title>
  <metadata
     id="metadata72">
    <rdf:RDF>
      <cc:Work
         rdf:about="">
        <dc:format>image/svg+xml</dc:format>
        <dc:type
           rdf:resource="http://purl.org/dc/dcmitype/StillImage" />
        <dc:title>LCN - Vega Circles Packaging</dc:title>
        <dc:date>2019-04-04</dc:date>
        <dc:creator>
          <cc:Agent>
            <dc:title>Sven van der Meer</dc:title>
          </cc:Agent>
        </dc:creator>
        <cc:license
           rdf:resource="http://creativecommons.org/licenses/by-sa/4.0/" />
      </cc:Work>
      <cc:License
         rdf:about="http://creativecommons.org/licenses/by-sa/4.0/">
        <cc:permits
           rdf:resource="http://creativecommons.org/ns#Reproduction" />
        <cc:permits
           rdf:resource="http://creativecommons.org/ns#Distribution" />
        <cc:requires
           rdf:resource="http://creativecommons.org/ns#Notice" />
        <cc:requires
           rdf:resource="http://creativecommons.org/ns#Attribution" />
        <cc:permits
           rdf:resource="http://creativecommons.org/ns#DerivativeWorks" />
        <cc:requires
           rdf:resource="http://creativecommons.org/ns#ShareAlike" />
      </cc:License>
    </rdf:RDF>
  </metadata>
  <defs
     id="defs70" />
  <sodipodi:namedview
     pagecolor="#ffffff"
     bordercolor="#666666"
     borderopacity="1"
     objecttolerance="10"
     gridtolerance="10"
     guidetolerance="10"
     inkscape:pageopacity="0"
     inkscape:pageshadow="2"
     inkscape:window-width="1920"
     inkscape:window-height="1057"
     id="namedview68"
     showgrid="false"
     inkscape:zoom="1.2078068"
     inkscape:cx="156.7212"
     inkscape:cy="244.20776"
     inkscape:window-x="-8"
     inkscape:window-y="-8"
     inkscape:window-maximized="1"
     inkscape:current-layer="svg66"
     fit-margin-top="0"
     fit-margin-left="0"
     fit-margin-right="0"
     fit-margin-bottom="0" />
  <path
     inkscape:connector-curvature="0"
     id="path4"
     style="fill:#3182bd;stroke:#000000;stroke-width:2"
     d="m 501,250.99989 a 250,250 0 1 1 -500,0 250,250 0 1 1 500,0" />
  <path
     inkscape:connector-curvature="0"
     id="path6"
     style="fill:#6baed6;stroke:#000000;stroke-width:2"
     d="m 251.00001,58.214121 a 50.667295,50.667295 0 1 1 -101.3346,0 50.667295,50.667295 0 1 1 101.3346,0" />
  <path
     inkscape:connector-curvature="0"
     id="path8"
     style="fill:#9ecae1;stroke:#000000;stroke-width:2"
     d="m 352.33458,58.214121 a 50.667295,50.667295 0 1 1 -101.33458,0 50.667295,50.667295 0 1 1 101.33458,0" />
  <path
     inkscape:connector-curvature="0"
     id="path10"
     style="fill:#c6dbef;stroke:#000000;stroke-width:2"
     d="m 449.66047,302.33942 a 198.66047,198.66047 0 1 1 -397.32094,0 198.66047,198.66047 0 1 1 397.32094,0" />
  <path
     inkscape:connector-curvature="0"
     id="path12"
     style="fill:#6baed6;stroke:#000000;stroke-width:2"
     d="m 196.82604,259.82045 a 22.659103,22.659103 0 1 1 -45.3182,0 22.659103,22.659103 0 1 1 45.3182,0" />
  <path
     inkscape:connector-curvature="0"
     id="path14"
     style="fill:#6baed6;stroke:#000000;stroke-width:2"
     d="m 242.14425,259.82045 a 22.659103,22.659103 0 1 1 -45.3182,0 22.659103,22.659103 0 1 1 45.3182,0" />
  <path
     inkscape:connector-curvature="0"
     id="path16"
     style="fill:#6baed6;stroke:#000000;stroke-width:2"
     d="m 219.48514,299.06716 a 22.659103,22.659103 0 1 1 -45.3182,0 22.659103,22.659103 0 1 1 45.3182,0" />
  <path
     inkscape:connector-curvature="0"
     id="path18"
     style="fill:#6baed6;stroke:#000000;stroke-width:2"
     d="m 219.48514,220.57373 a 22.659103,22.659103 0 1 1 -45.3182,0 22.659103,22.659103 0 1 1 45.3182,0" />
  <path
     inkscape:connector-curvature="0"
     id="path20"
     style="fill:#e6550d;stroke:#000000;stroke-width:2"
     d="m 175.31146,208.15228 a 45.318206,45.318206 0 1 1 -90.636416,0 45.318206,45.318206 0 1 1 90.636416,0" />
  <path
     inkscape:connector-curvature="0"
     id="path22"
     style="fill:#fd8d3c;stroke:#000000;stroke-width:2"
     d="m 129.99325,208.15228 a 22.659103,22.659103 0 1 1 -45.318203,0 22.659103,22.659103 0 1 1 45.318203,0" />
  <path
     inkscape:connector-curvature="0"
     id="path24"
     style="fill:#fd8d3c;stroke:#000000;stroke-width:2"
     d="m 175.31146,208.15228 a 22.659103,22.659103 0 1 1 -45.3182,0 22.659103,22.659103 0 1 1 45.3182,0" />
  <path
     inkscape:connector-curvature="0"
     id="path26"
     style="fill:#fd8d3c;stroke:#000000;stroke-width:2"
     d="m 431.41809,355.47598 a 112.151,112.151 0 1 1 -224.302,0 112.151,112.151 0 1 1 224.302,0" />
  <path
     inkscape:connector-curvature="0"
     id="path28"
     style="fill:#fd8d3c;stroke:#000000;stroke-width:2"
     d="m 285.85069,361.6867 a 22.659103,22.659103 0 1 1 -45.3182,0 22.659103,22.659103 0 1 1 45.3182,0" />
  <path
     inkscape:connector-curvature="0"
     id="path30"
     style="fill:#fd8d3c;stroke:#000000;stroke-width:2"
     d="m 331.1689,361.6867 a 22.659103,22.659103 0 1 1 -45.3182,0 22.659103,22.659103 0 1 1 45.3182,0" />
  <path
     inkscape:connector-curvature="0"
     id="path32"
     style="fill:#fd8d3c;stroke:#000000;stroke-width:2"
     d="m 308.50979,400.93342 a 22.659103,22.659103 0 1 1 -45.3182,0 22.659103,22.659103 0 1 1 45.3182,0" />
  <path
     inkscape:connector-curvature="0"
     id="path34"
     style="fill:#fd8d3c;stroke:#000000;stroke-width:2"
     d="m 331.1689,297.59708 a 45.318208,45.318208 0 1 1 -90.63642,0 45.318208,45.318208 0 1 1 90.63642,0" />
  <path
     inkscape:connector-curvature="0"
     id="path36"
     style="fill:#fd8d3c;stroke:#000000;stroke-width:2"
     d="m 285.85069,297.59708 a 22.659103,22.659103 0 1 1 -45.3182,0 22.659103,22.659103 0 1 1 45.3182,0" />
  <path
     inkscape:connector-curvature="0"
     id="path38"
     style="fill:#fd8d3c;stroke:#000000;stroke-width:2"
     d="m 331.1689,297.59708 a 22.659103,22.659103 0 1 1 -45.3182,0 22.659103,22.659103 0 1 1 45.3182,0" />
  <path
     inkscape:connector-curvature="0"
     id="path40"
     style="fill:#fd8d3c;stroke:#000000;stroke-width:2"
     d="m 398.00169,413.35487 a 45.31821,45.31821 0 1 1 -90.63642,0 45.31821,45.31821 0 1 1 90.63642,0" />
  <path
     inkscape:connector-curvature="0"
     id="path42"
     style="fill:#fd8d3c;stroke:#000000;stroke-width:2"
     d="m 352.68348,413.35487 a 22.659103,22.659103 0 1 1 -45.3182,0 22.659103,22.659103 0 1 1 45.3182,0" />
  <path
     inkscape:connector-curvature="0"
     id="path44"
     style="fill:#fd8d3c;stroke:#000000;stroke-width:2"
     d="m 398.00169,413.35487 a 22.659103,22.659103 0 1 1 -45.3182,0 22.659103,22.659103 0 1 1 45.3182,0" />
  <path
     inkscape:connector-curvature="0"
     id="path46"
     style="fill:#fd8d3c;stroke:#000000;stroke-width:2"
     d="m 308.97705,208.15228 a 45.318208,45.318208 0 1 1 -90.63642,0 45.318208,45.318208 0 1 1 90.63642,0" />
  <path
     inkscape:connector-curvature="0"
     id="path48"
     style="fill:#fdae6b;stroke:#000000;stroke-width:2"
     d="m 263.65883,208.15228 a 22.659103,22.659103 0 1 1 -45.3182,0 22.659103,22.659103 0 1 1 45.3182,0" />
  <path
     inkscape:connector-curvature="0"
     id="path50"
     style="fill:#fdae6b;stroke:#000000;stroke-width:2"
     d="m 308.97704,208.15228 a 22.659103,22.659103 0 1 1 -45.3182,0 22.659103,22.659103 0 1 1 45.3182,0" />
</svg>
